<svg xmlns="http://www.w3.org/2000/svg" version="1.1" xmlns:xlink="http://www.w3.org/1999/xlink" xmlns:svgjs="http://svgjs.com/svgjs" width="1000" height="1000"><rect width="1000" height="1000" rx="250" ry="250" fill="#c9c9c9"></rect><g transform="matrix(7.339449541284404,0,0,7.339449541284404,100.19675194268291,116.60629124136966)"><svg xmlns="http://www.w3.org/2000/svg" version="1.1" xmlns:xlink="http://www.w3.org/1999/xlink" xmlns:svgjs="http://svgjs.com/svgjs" width="109" height="104.4"><svg xmlns="http://www.w3.org/2000/svg" xmlnsxlink="http://www.w3.org/1999/xlink" preserveAspectRatio="xMidYMid meet" version="1.0" viewBox="-0.0 -0.1 109.0 104.4" zoomAndPan="magnify" styles="color: #6d28d9;">
    <g data-name="44" id="__id135_soej6kxjhj">
      <path d="M102.175,42.537Q78.639,26.4,55.121,10.243c-.228-.157-.468-.3-.684-.434-.147.091-.246.147-.339.211Q30.293,26.366,6.482,42.7a1.262,1.262,0,0,0-.568,1.209q.031,25.228.042,50.456c0,.3.036.6.056.906H20.774V60.988h-.958c-2.244,0-4.489.031-6.733-.015a1.8,1.8,0,0,1-1.711-2.662c1.621-3.687,3.273-7.361,4.915-11.038a1.9,1.9,0,0,1,1.872-1.217q4.518.008,9.035,0a1.88,1.88,0,0,1,1.863,1.221c1.6,3.6,3.212,7.2,4.807,10.806.739,1.671-.045,2.881-1.878,2.9-2.159.018-4.32.043-6.478-.012-.8-.02-.989.228-.987,1q.036,16.194.018,32.387c0,.3.035.6.057.962,4.517,0,8.944,0,13.37-.016a.632.632,0,0,0,.468-.355c.543-1.752,1.054-3.515,1.582-5.3-.233-.1-.382-.177-.537-.236a8.488,8.488,0,0,1-5.673-8.189c0-2.472-.03-4.944.02-7.415a4.291,4.291,0,0,1,.451-1.782A3.781,3.781,0,0,1,37.966,69.9c1.271.012,2.542,0,3.872,0,0-2.211,0-4.31,0-6.409,0-3.2,1.926-5.158,5.127-5.166q7.5-.02,15,0a4.731,4.731,0,0,1,5.09,5.109v6.49c1.491,0,2.906-.053,4.317.012a3.806,3.806,0,0,1,3.708,3.889c.008,2.557.036,5.114-.008,7.67a8.219,8.219,0,0,1-3.779,6.967A21.885,21.885,0,0,1,68.9,89.7c.473,1.626.971,3.276,1.425,4.938a.814.814,0,0,0,.952.692c3.579-.025,7.159-.012,10.739-.015.222,0,.444-.028.744-.049-.049-.292-.08-.538-.133-.78q-1.773-8.017-3.549-16.035a1.764,1.764,0,0,1,1.462-2.266A7.36,7.36,0,0,1,81.9,76.1c1.062-.011,2.125,0,3.22,0a42.867,42.867,0,0,0-2.753-10.993.882.882,0,0,0-.487-.51c-2.384-.517-3.734-2.2-4.662-4.25-1.208-2.666-1.682-5.435-.4-8.232.845-1.84,1.69-2.168,3.622-1.552a4.116,4.116,0,0,1,.7.309A10.5,10.5,0,0,1,86.484,57.9a6.036,6.036,0,0,1-.641,5.083,1.037,1.037,0,0,0,0,.774c.4,1.24.9,2.453,1.26,3.7.483,1.655.878,3.335,1.342,5.122.271-1.16.549-2.2.74-3.261a2.659,2.659,0,0,0-.173-1.089,13.1,13.1,0,0,1-.791-2.9A9.975,9.975,0,0,1,91.4,57.967a7.342,7.342,0,0,1,4-2.27,1.84,1.84,0,0,1,2.182.915,8.378,8.378,0,0,1,1.053,2.572,10.488,10.488,0,0,1-2.551,8.936,4.994,4.994,0,0,1-2.122,1.492,1.882,1.882,0,0,0-1.457,1.772c-.248,1.548-.53,3.091-.812,4.716,1.9,0,3.6-.019,5.3.006a1.885,1.885,0,0,1,2,2.527q-1.359,6.148-2.724,12.3c-.316,1.432-.621,2.866-.936,4.325h7.616v-.992q0-25.143.017-50.286A1.541,1.541,0,0,0,102.175,42.537ZM75.589,53.108c0,1.584-.628,2.26-2.193,2.262q-17.72.014-35.44,0c-1.521,0-2.158-.676-2.159-2.2q-.006-11.415,0-22.83c0-1.51.663-2.171,2.185-2.173q8.859-.009,17.719,0,8.733,0,17.465,0c1.846,0,2.423.588,2.423,2.456Q75.589,41.863,75.589,53.108Zm33.327-10.464c-.438-.287-.736-.474-1.027-.674L56.14,6.43c-1.51-1.038-1.864-1.04-3.358-.014Q26.871,24.209.96,42c-.27.186-.547.362-.954.63,0-1.979-.025-3.787.029-5.593.007-.245.37-.532.63-.709q10.877-7.408,21.767-14.8Q38.04,10.932,53.636.314a1.207,1.207,0,0,1,1.625,0q26.441,18,52.916,35.943a1.5,1.5,0,0,1,.753,1.457C108.885,39.294,108.916,40.876,108.916,42.644ZM2,99.093h104.93v5.194H2Zm63.962-12.8c-6.247-.032-12.494,0-18.741-.013-1.815,0-3.639.033-5.444-.116a4.7,4.7,0,0,1-4.231-4.66c-.014-2.582,0-5.163,0-7.821h4.294v3.475c0,.852-.005,1.7,0,2.556A1.942,1.942,0,0,0,44.046,81.9c1.392.01,2.783,0,4.175,0q8.22,0,16.441,0c1.759,0,2.393-.647,2.394-2.423,0-1.9,0-3.8,0-5.822h4.131c.053.067.116.109.117.152.007,2.78.14,5.568-.031,8.337C71.156,84.029,69.439,86.309,65.963,86.292ZM63.317,72.261H45.579v-8.11c0-2.057.069-2.124,2.167-2.125q6.938,0,13.876,0c1.467,0,1.694.226,1.694,1.654C63.317,66.517,63.317,69.354,63.317,72.261Zm19.956,7.63H94.916c-.437,1.993-.859,3.927-1.286,5.861-.635,2.878-1.3,5.749-1.892,8.636-.158.771-.477,1-1.243.953-1.1-.073-2.214.012-3.318-.044a.9.9,0,0,1-.656-.531c-1.1-4.834-2.173-9.676-3.245-14.517A1.831,1.831,0,0,1,83.273,79.891ZM65.354,90.766c.38,1.475.838,2.929,1.3,4.523h-24.4c.256-.889.479-1.722.735-2.544.284-.913.344-2.141.97-2.629.592-.46,1.794-.154,2.727-.155,5.851,0,11.7.009,17.551-.018C64.9,89.94,65.19,90.127,65.354,90.766ZM29.436,57.249H15.943c.142-.355.253-.66.385-.956.864-1.939,1.751-3.869,2.589-5.819a.979.979,0,0,1,1.058-.728c1.814.04,3.63-.006,5.444.035a1.122,1.122,0,0,1,.856.446C27.341,52.507,28.35,54.814,29.436,57.249ZM45.639,78.1V76.13H63.283V78.1Zm34.28-23.462c1.956.53,3.809,4.805,2.722,6.317C80.881,60.464,79.452,57.023,79.919,54.639ZM92.2,66.3c-1.027-1.427.67-5.279,2.74-6.384C95.558,62.377,93.824,66.2,92.2,66.3ZM47.982,40.454c1.915,1.321,3.871,2.582,5.789,3.9a1.043,1.043,0,0,0,1.222.083c2.721-1.342,5.474-2.618,8.188-3.973a3.182,3.182,0,0,1,2.991-.108c1.619.75,3.3,1.376,4.949,2.05.216.088.443.147.7.23V31.94H39.543V42.7c2.071-.847,4.064-1.642,6.04-2.48A2.3,2.3,0,0,1,47.982,40.454Zm7.67-7.608a5.009,5.009,0,1,1-4.974,5.005A5.077,5.077,0,0,1,55.652,32.846ZM57.631,51.4c.041.028.058.092.146.24H39.507c0-1.579-.012-3.129.021-4.678,0-.144.272-.337.457-.415Q43,45.282,46.043,44.061a.856.856,0,0,1,.688.05Q52.194,47.737,57.631,51.4Zm14.2-4.34c.042,1.5.023,3,.023,4.608-2.382,0-4.622,0-6.862-.009a1.071,1.071,0,0,1-.546-.193c-2.125-1.41-4.243-2.831-6.483-4.33.98-.481,1.858-.917,2.741-1.344,1.174-.569,2.339-1.159,3.534-1.678a1.593,1.593,0,0,1,1.1-.048c2.009.779,4,1.607,5.983,2.447C71.537,46.605,71.826,46.87,71.831,47.061Zm-17.416-9.22a1.275,1.275,0,0,1,1.225-1.265,1.324,1.324,0,0,1,1.34,1.253A1.286,1.286,0,0,1,55.7,39.12,1.242,1.242,0,0,1,54.415,37.841Z"></path>
    </g>
  </svg></svg></g></svg>